<?xml version="1.0" encoding="utf-8"?>
<!-- Generator: Adobe Illustrator 25.3.1, SVG Export Plug-In . SVG Version: 6.00 Build 0)  -->
<svg version="1.1" id="Layer_1" xmlns="http://www.w3.org/2000/svg" xmlns:xlink="http://www.w3.org/1999/xlink" x="0px" y="0px"
	 viewBox="0 0 1000 1000" style="enable-background:new 0 0 1000 1000;" xml:space="preserve">
<style type="text/css">
	.st0{fill:#FFFFFF;}
</style>
<path class="st0" d="M882.51,324.26H641.3c-6.66,0-13.12,2.31-18.27,6.55L454.35,469.49l-9.83-34.66c-0.67-2.38,0.85-5.62,3.73-7.99
	l107.95-88.76c5.66-4.65,2.37-13.83-4.95-13.83H419.78c-3.69,0-5.26-2.98-3.55-6.66L524.96,84.45L336.89,160.7
	c-5.57,2.26-10.57,6.86-12.93,11.92L150.76,544.08l-40.37,86.6c-3.45,7.34-0.25,13.32,7.11,13.32h133.22
	c7.35,0,16.1-5.98,19.54-13.32l34.17-73.28c2.98-6.39,12.42-9.13,13.86-4l24.18,85.27c0.95,3.35,3.97,5.33,8.17,5.33h9.73H477.2
	h26.66h76.33c3.69,0,5.27,2.97,3.55,6.66L466.44,902.21c-4.61,9.9,2.8,16.34,13.72,11.92l164.29-66.61
	c5.58-2.27,10.57-6.86,12.93-11.92l167-358.13c3.45-7.35,0.25-13.33-7.11-13.33H684.04c-7.35,0-16.1,5.97-19.54,13.33l-46.59,99.92
	c-1.71,3.68-6.08,6.66-9.77,6.66h-66.61c-3.69,0-5.26-2.98-3.55-6.66l86.97-186.51c1.71-3.69,6.08-6.66,9.77-6.66h66.61
	c3.68,0,5.27,2.97,3.55,6.66l-9.32,19.98c-3.44,7.35-0.25,13.32,7.11,13.32H835.9c7.34,0,16.09-5.97,19.53-13.32l34.17-73.28
	C893.05,330.23,889.88,324.26,882.51,324.26z"/>
</svg>
